<svg width="48" height="48" viewBox="0 0 48 48" fill="none" xmlns="http://www.w3.org/2000/svg">
<path d="M21.1429 26.8571H6.85714C6.04762 26.8571 5.36905 26.5833 4.82143 26.0357C4.27381 25.4881 4 24.8095 4 24C4 23.1905 4.27381 22.5119 4.82143 21.9643C5.36905 21.4167 6.04762 21.1429 6.85714 21.1429H21.1429V6.85714C21.1429 6.04762 21.4167 5.36905 21.9643 4.82143C22.5119 4.27381 23.1905 4 24 4C24.8095 4 25.4881 4.27381 26.0357 4.82143C26.5833 5.36905 26.8571 6.04762 26.8571 6.85714V21.1429H41.1429C41.9524 21.1429 42.631 21.4167 43.1786 21.9643C43.7262 22.5119 44 23.1905 44 24C44 24.8095 43.7262 25.4881 43.1786 26.0357C42.631 26.5833 41.9524 26.8571 41.1429 26.8571H26.8571V41.1429C26.8571 41.9524 26.5833 42.631 26.0357 43.1786C25.4881 43.7262 24.8095 44 24 44C23.1905 44 22.5119 43.7262 21.9643 43.1786C21.4167 42.631 21.1429 41.9524 21.1429 41.1429V26.8571Z" fill="#212121"/>
</svg>
