<svg width="30" height="30" viewBox="0 0 30 30" fill="none" xmlns="http://www.w3.org/2000/svg">
<path d="M15 14.6973C13.9686 14.6973 13.0914 14.3229 12.3685 13.5743C11.6457 12.8255 11.2844 11.9169 11.2844 10.8486C11.2844 9.78013 11.6457 8.87157 12.3685 8.12294C13.0914 7.37431 13.9686 7 15 7C16.0314 7 16.9086 7.37431 17.6315 8.12294C18.3543 8.87157 18.7156 9.78013 18.7156 10.8486C18.7156 11.9169 18.3543 12.8255 17.6315 13.5743C16.9086 14.3229 16.0314 14.6973 15 14.6973ZM7 21.3941V20.6185C7 20.079 7.13938 19.583 7.41813 19.1304C7.69707 18.6779 8.07676 18.3283 8.5572 18.0816C9.62504 17.5482 10.6959 17.1455 11.7697 16.8738C12.8434 16.6022 13.9202 16.4664 15.0003 16.4664C16.0801 16.4664 17.1573 16.6022 18.2319 16.8738C19.3063 17.1452 20.3771 17.5477 21.4442 18.0814C21.9242 18.328 22.3036 18.6777 22.5821 19.1304C22.8607 19.583 23 20.0789 23 20.6182V21.3941C23 21.8403 22.8493 22.2194 22.548 22.5315C22.2465 22.8438 21.8803 23 21.4496 23H8.55037C8.11967 23 7.75355 22.8438 7.45202 22.5315C7.15067 22.2194 7 21.8403 7 21.3941Z" fill="#212121"/>
</svg>
