<svg width="50" height="50" viewBox="0 0 50 50" fill="none" xmlns="http://www.w3.org/2000/svg">
<path d="M8.33332 50C7.18749 50 6.20659 49.592 5.39061 48.776C4.57464 47.9601 4.16666 46.9792 4.16666 45.8333C4.16666 44.6875 4.57464 43.7066 5.39061 42.8906C6.20659 42.0747 7.18749 41.6667 8.33332 41.6667H41.6667C42.8125 41.6667 43.7934 42.0747 44.6094 42.8906C45.4253 43.7066 45.8333 44.6875 45.8333 45.8333C45.8333 46.9792 45.4253 47.9601 44.6094 48.776C43.7934 49.592 42.8125 50 41.6667 50H8.33332ZM12.5 33.3333H15.4167L31.6667 17.1354L30.1562 15.625L28.6979 14.1667L12.5 30.4167V33.3333ZM8.33332 35.4167V29.5313C8.33332 29.2535 8.38541 28.9844 8.48957 28.724C8.59374 28.4635 8.74999 28.2292 8.95832 28.0208L31.6667 5.36459C32.0486 4.98264 32.4913 4.68751 32.9948 4.47917C33.4983 4.27084 34.0278 4.16667 34.5833 4.16667C35.1389 4.16667 35.6771 4.27084 36.1979 4.47917C36.7187 4.68751 37.1875 5.00001 37.6042 5.41667L40.4687 8.33334C40.8854 8.71528 41.1892 9.16667 41.3802 9.6875C41.5712 10.2083 41.6667 10.7465 41.6667 11.3021C41.6667 11.8229 41.5712 12.3351 41.3802 12.8385C41.1892 13.342 40.8854 13.8021 40.4687 14.2188L17.8125 36.875C17.6042 37.0833 17.3698 37.2396 17.1094 37.3438C16.8489 37.4479 16.5799 37.5 16.3021 37.5H10.4167C9.82638 37.5 9.33159 37.3004 8.93228 36.901C8.53298 36.5017 8.33332 36.0069 8.33332 35.4167ZM31.6667 17.1354L30.1562 15.625L28.6979 14.1667L31.6667 17.1354Z" fill="#212121"/>
</svg>
