<svg width="48" height="48" viewBox="0 0 48 48" fill="none" xmlns="http://www.w3.org/2000/svg">
<path d="M24.0001 41C23.5334 41 23.0584 40.9175 22.5751 40.7525C22.0917 40.5875 21.6667 40.3234 21.3001 39.9604L17.8501 36.8416C14.3167 33.6403 11.1251 30.4637 8.27507 27.3119C5.42507 24.1601 4.00007 20.6865 4.00007 16.8911C4.00007 13.7888 5.05007 11.198 7.15007 9.11882C9.25007 7.03961 11.8667 6.00001 15.0001 6.00001C16.7667 6.00001 18.4334 6.37129 20.0001 7.11387C21.5667 7.85644 22.9001 8.87129 24.0001 10.1584C25.1001 8.87129 26.4334 7.85644 28.0001 7.11387C29.5667 6.37129 31.2334 6.00001 33.0001 6.00001C36.1334 6.00001 38.7501 7.03961 40.8501 9.11882C42.9501 11.198 44.0001 13.7888 44.0001 16.8911C44.0001 20.6865 42.5834 24.1683 39.7501 27.3366C36.9167 30.505 33.7001 33.6898 30.1001 36.8911L26.7001 39.9604C26.3334 40.3234 25.9084 40.5875 25.4251 40.7525C24.9417 40.9175 24.4667 41 24.0001 41Z" fill="#1F1E21"/>
</svg>
