<svg width="116" height="100" viewBox="0 0 116 100" fill="none" xmlns="http://www.w3.org/2000/svg">
<path d="M61.1788 50.4514L84.2144 26.8726L116 59.4076C113.738 64.0381 111.089 68.4553 108.054 72.6592C105.137 76.8632 101.417 81.2804 96.8929 85.9109C90.4048 92.5519 83.5894 96.8472 76.4466 98.7969C69.3633 100.686 62.1907 100.351 54.9288 97.7916C47.7264 95.1717 40.7026 90.3585 33.8574 83.3519C27.1908 76.5281 22.7265 69.2778 20.4646 61.601C18.2027 53.9242 18.173 46.2169 20.3753 38.4792C22.5777 30.6196 27.1908 23.0952 34.2146 15.9058C37.7265 12.3111 41.4467 9.23428 45.3752 6.67535C49.2443 4.05549 54.2734 1.5841 58.2019 0L61.6252 12.1588C58.4109 13.3773 55.1073 15.0528 51.7145 17.1852C48.3217 19.1958 45.1371 21.7243 42.161 24.7707C37.4586 29.5839 34.3931 34.7931 32.9646 40.3984C31.536 45.8818 31.7443 51.4567 33.5896 57.1229C35.4348 62.6672 38.8872 68.0288 43.9467 73.2076C48.7086 78.0817 53.6788 81.646 58.8573 83.9003C64.0359 86.1546 69.274 86.7029 74.5716 85.5453C79.8692 84.3877 85.1072 81.1585 90.2858 75.8579C92.012 74.091 93.4703 72.4765 94.6608 71.0142C95.7917 69.491 96.8036 68.0897 97.6965 66.8102C98.5893 65.4089 99.4524 64.099 100.286 62.8805L82.9644 45.1507L69.4823 58.9507L61.1788 50.4514Z" fill="url(#paint0_linear_46_197)"/>
<path d="M54.8212 50.082L31.7856 26.5032L0 59.0382C2.2619 63.6687 4.9107 68.0859 7.9464 72.2898C10.8631 76.4938 14.5833 80.911 19.1071 85.5414C25.5951 92.1825 32.4106 96.4778 39.5534 98.4275C46.6367 100.316 53.8093 99.9811 61.0712 97.4222C68.2736 94.8023 75.2974 89.9891 82.1426 82.9825C88.8092 76.1587 93.2735 68.9084 95.5354 61.2316C97.7973 53.5548 97.827 45.8475 95.6247 38.1098C93.4223 30.2502 88.8092 22.7258 81.7854 15.5364C78.2735 11.9417 74.5533 8.86488 70.6248 6.30594C66.7557 3.68608 62.1305 1.5841 58.2019 0L54.3748 11.7894C57.5891 13.0079 60.8926 14.6834 64.2855 16.8158C67.6783 18.8264 70.8629 21.3549 73.839 24.4012C78.5414 29.2145 81.6069 34.4237 83.0354 40.029C84.464 45.5124 84.2557 51.0872 82.4104 56.7535C80.5652 62.2978 77.1128 67.6594 72.0533 72.8382C67.2914 77.7123 62.3212 81.2766 57.1427 83.5309C51.9641 85.7851 46.726 86.3335 41.4284 85.1759C36.1308 84.0183 30.8928 80.7891 25.7142 75.4885C23.988 73.7216 22.5297 72.1071 21.3392 70.6448C20.2083 69.1216 19.1964 67.7203 18.3035 66.4408C17.4107 65.0395 16.5476 63.7296 15.7142 62.5111L33.0356 44.7813L46.5177 58.5813L54.8212 50.082Z" fill="url(#paint1_linear_46_197)"/>
<defs>
<linearGradient id="paint0_linear_46_197" x1="58" y1="0" x2="58" y2="100" gradientUnits="userSpaceOnUse">
<stop stop-color="#9985FF"/>
<stop offset="0.95" stop-color="#1A038E"/>
</linearGradient>
<linearGradient id="paint1_linear_46_197" x1="58" y1="0" x2="58" y2="100" gradientUnits="userSpaceOnUse">
<stop stop-color="#9985FF"/>
<stop offset="0.95" stop-color="#1A038E"/>
</linearGradient>
</defs>
</svg>
